<svg viewBox="0 0 100 100" xmlns="http://www.w3.org/2000/svg"><circle cx="50" cy="50" fill="#fee6ff" r="50"/><path d="m75.37 49.23c-.2-.41-.62-.68-1.07-.75l-.84-.13c-.03-.44-.07-.88-.13-1.31 0 0 0-.01 0-.02-1.53-12.1-11.91-21.49-24.44-21.42-12.81.07-23.55 10.19-24.34 22.97-.38 6.13 1.51 11.81 4.9 16.29.92 1.21 2.69 1.34 3.76.27.89-.89.96-2.29.2-3.29-2.7-3.58-4.2-8.11-3.88-13 .62-9.65 8.39-17.5 18.04-18.2 10.39-.75 19.24 6.68 20.74 16.5.02.11.03.22.04.34 0 .03 0 .06.01.09-.56-.09-1.11.18-1.4.68-.25.44-.21.99.04 1.42l1.23 2.13.2.35.38.67.74 1.28c.09.15.2.27.34.36.13.09.27.14.43.17h.02c.25.04.5-.01.72-.13.07-.04.14-.09.2-.15l1.72-1.58.44-.41 1.66-1.53c.24-.22.38-.5.43-.8.04-.27 0-.56-.13-.83z" fill="#df9dde"/><g fill="#954293"><path d="m40.56 73.18c-1.25-.46-2.39-1.02-3.31-1.55-1.32-.75-1.68-2.5-.74-3.7.76-.98 2.13-1.25 3.2-.64.73.42 1.62.87 2.58 1.21 1.11.4 1.77 1.54 1.59 2.71-.24 1.56-1.84 2.51-3.33 1.97z"/><path d="m48.45 71.9v-.11c.05-1.21.98-2.2 2.18-2.3.91-.08 2.02-.23 3.15-.51s2.36.28 2.83 1.38l.05.12c.59 1.38-.22 2.95-1.68 3.28-1.35.3-2.74.49-3.89.61-1.45.15-2.69-1.02-2.64-2.47z"/><path d="m64.69 68.95c-1.12.96-2.81.73-3.66-.47l.08.12-.08-.12c-.73-1.05-.56-2.49.41-3.32.69-.59 1.5-1.34 2.24-2.15.82-.91 2.18-1.07 3.2-.4 1.28.84 1.52 2.62.49 3.76-.9 1-1.86 1.89-2.68 2.59z"/></g><path d="m48.88 61.5c-.47 0-.97-.02-1.48-.07-2.97-.25-5.82-1.99-7.45-4.53-.5-.78-.27-1.81.5-2.31.78-.5 1.81-.27 2.31.5 1.08 1.69 2.97 2.84 4.92 3.01 2.18.18 3.77-.11 4.73-.89.87-.7 1.04-2.55.32-3.6-.52-.76-1.41-1.21-2.06-1.45-.67-.25-1.44-.41-2.25-.58-2.12-.44-4.52-.94-6.12-3.24-1.67-2.39-1.45-5.81.53-8.12 1.56-1.82 3.46-2.82 5.5-2.89 2.47-.08 5.06 1.2 7.5 3.7.64.66.63 1.72-.03 2.36s-1.72.63-2.36-.03c-1.77-1.81-3.48-2.75-5-2.7-1.1.04-2.13.61-3.07 1.72-.97 1.14-1.11 2.91-.33 4.04.84 1.21 2.34 1.52 4.07 1.88.9.19 1.82.38 2.73.72 1.59.59 2.85 1.52 3.65 2.7 1.7 2.5 1.25 6.27-.98 8.07-1.4 1.13-3.25 1.69-5.63 1.69z" fill="#fe4a8b"/><path d="m48.63 39.98c-.92 0-1.67-.75-1.67-1.67v-3.1c0-.92.75-1.67 1.67-1.67s1.67.75 1.67 1.67v3.1c0 .92-.75 1.67-1.67 1.67z" fill="#fe4a8b"/><path d="m48.63 64.9c-.92 0-1.67-.75-1.67-1.67v-3.1c0-.92.75-1.67 1.67-1.67s1.67.75 1.67 1.67v3.1c0 .92-.75 1.67-1.67 1.67z" fill="#fe4a8b"/></svg>